<svg width="64" height="64" viewBox="0 0 64 64" fill="none" xmlns="http://www.w3.org/2000/svg">
<rect width="64" height="64" rx="32" fill="#FEDC4A" fill-opacity="0.2"/>
<path d="M25.3075 39.7159L18.3993 32.8002C18.2187 32.6171 18.0035 32.4718 17.7664 32.3726C17.5292 32.2734 17.2747 32.2224 17.0177 32.2224C16.7606 32.2224 16.5062 32.2734 16.269 32.3726C16.0318 32.4718 15.8167 32.6171 15.636 32.8002C15.4532 32.981 15.308 33.1964 15.2089 33.4338C15.1099 33.6713 15.0588 33.926 15.0588 34.1833C15.0588 34.4406 15.1099 34.6954 15.2089 34.9328C15.308 35.1703 15.4532 35.3856 15.636 35.5665L23.9061 43.8456C24.6759 44.6162 25.9194 44.6162 26.6891 43.8456L47.611 22.9206C47.7939 22.7398 47.9391 22.5244 48.0382 22.287C48.1372 22.0495 48.1883 21.7948 48.1883 21.5375C48.1883 21.2801 48.1372 21.0254 48.0382 20.788C47.9391 20.5505 47.7939 20.3352 47.611 20.1543C47.4304 19.9713 47.2153 19.8259 46.9781 19.7267C46.7409 19.6276 46.4864 19.5765 46.2294 19.5765C45.9724 19.5765 45.7179 19.6276 45.4807 19.7267C45.2436 19.8259 45.0284 19.9713 44.8478 20.1543L25.3075 39.7159Z" fill="#FEDC4A"/>
</svg>
