<svg width="14" height="17" viewBox="0 0 14 17" fill="none" xmlns="http://www.w3.org/2000/svg">
<mask id="mask0_7_67" style="mask-type:luminance" maskUnits="userSpaceOnUse" x="0" y="0" width="14" height="17">
<path d="M12.25 1H1.75C1.55109 1 1.36032 1.07902 1.21967 1.21967C1.07902 1.36032 1 1.55109 1 1.75V15.25C1 15.4489 1.07902 15.6397 1.21967 15.7803C1.36032 15.921 1.55109 16 1.75 16H12.25C12.4489 16 12.6397 15.921 12.7803 15.7803C12.921 15.6397 13 15.4489 13 15.25V1.75C13 1.55109 12.921 1.36032 12.7803 1.21967C12.6397 1.07902 12.4489 1 12.25 1Z" fill="white" stroke="white" stroke-linecap="round" stroke-linejoin="round"/>
<path d="M4 10.75H9.25M4 13H6.625" stroke="black" stroke-linecap="round" stroke-linejoin="round"/>
<path d="M4 4H9.25V7.75H4V4Z" fill="white" stroke="black" stroke-linecap="round" stroke-linejoin="round"/>
</mask>
<g mask="url(#mask0_7_67)">
<path d="M-2.375 -0.5H15.625V17.5H-2.375V-0.5Z" fill="black"/>
</g>
</svg>
