<svg width="15" height="15" viewBox="0 0 15 15" fill="none" xmlns="http://www.w3.org/2000/svg">
<path d="M11.4286 9.28571H2.85714L0 12.1429V0.714286C0 0.524845 0.0752549 0.343164 0.209209 0.209209C0.343164 0.0752549 0.524845 0 0.714286 0H11.4286C11.618 0 11.7997 0.0752549 11.9336 0.209209C12.0676 0.343164 12.1429 0.524845 12.1429 0.714286V8.57143C12.1429 8.76087 12.0676 8.94255 11.9336 9.0765C11.7997 9.21046 11.618 9.28571 11.4286 9.28571ZM15 5V15L12.1429 12.1429H4.28571C4.09627 12.1429 3.91459 12.0676 3.78064 11.9336C3.64668 11.7997 3.57143 11.618 3.57143 11.4286V10.7143H13.5714V4.28571H14.2857C14.4752 4.28571 14.6568 4.36097 14.7908 4.49492C14.9247 4.62888 15 4.81056 15 5ZM4.42143 1.42857C3.8 1.42857 3.3 1.57143 2.91429 1.85C2.54286 2.14286 2.35714 2.55 2.36429 3.11429L2.37143 3.13571H3.75C3.75714 2.92143 3.82143 2.75714 3.95 2.64286C4.08227 2.53317 4.24964 2.47485 4.42143 2.47857C4.64286 2.47857 4.82857 2.55 4.95714 2.67857C5.08571 2.81429 5.14286 3 5.14286 3.21429C5.14286 3.44286 5.09286 3.63571 4.97857 3.8C4.87857 3.96429 4.72857 4.10714 4.54286 4.22143C4.17857 4.46429 3.92857 4.67857 3.79286 4.87143C3.65 5.05714 3.57143 5.35714 3.57143 5.71429H5C5 5.49286 5.02857 5.31429 5.09286 5.18571C5.15714 5.05714 5.27857 4.92857 5.45714 4.81429C5.77857 4.64286 6.04286 4.43571 6.25 4.15C6.45714 3.86429 6.56429 3.57143 6.56429 3.21429C6.56429 2.67143 6.37143 2.23571 5.98571 1.91429C5.60714 1.59286 5.08571 1.42857 4.42143 1.42857ZM3.57143 6.42857V7.85714H5V6.42857H3.57143ZM7.85714 7.85714H9.28571V6.42857H7.85714V7.85714ZM7.85714 1.42857V5.71429H9.28571V1.42857H7.85714Z" fill="black"/>
</svg>
