<svg width="16" height="16" viewBox="0 0 16 16" fill="none" xmlns="http://www.w3.org/2000/svg">
<path d="M10.8762 11.4697L8.37591 13.9759C7.51124 14.8426 6.46927 15.2759 5.24998 15.2759C4.0307 15.2759 2.98914 14.8426 2.1253 13.9759C1.26064 13.1092 0.828303 12.0647 0.828303 10.8426C0.828303 9.62041 1.26064 8.5764 2.1253 7.71053L4.62555 5.20439L5.87567 6.45746L3.37542 8.9636C2.85454 9.48571 2.5941 10.1122 2.5941 10.8432C2.5941 11.5742 2.85454 12.2007 3.37542 12.7228C3.89631 13.2449 4.52137 13.506 5.25061 13.506C5.97984 13.506 6.6049 13.2449 7.12579 12.7228L9.62603 10.2167L10.8762 11.4697ZM6.50073 10.8432L5.25061 9.59013L10.2511 4.57785L11.5012 5.83092L6.50073 10.8432ZM12.1263 10.2167L10.8762 8.9636L13.3764 6.45746C13.8973 5.93534 14.1577 5.30881 14.1577 4.57785C14.1577 3.84689 13.8973 3.22036 13.3764 2.69825C12.8555 2.17614 12.2305 1.91508 11.5012 1.91508C10.772 1.91508 10.1469 2.17614 9.62603 2.69825L7.12579 5.20439L5.87567 3.95132L8.37591 1.44518C9.24058 0.578472 10.2826 0.145119 11.5018 0.145119C12.7211 0.145119 13.7627 0.578472 14.6265 1.44518C15.4912 2.31188 15.9235 3.35632 15.9235 4.57848C15.9235 5.80064 15.4912 6.84465 14.6265 7.71053L12.1263 10.2167Z" fill="black"/>
</svg>
