<svg width="28" height="28" viewBox="0 0 28 28" fill="none" xmlns="http://www.w3.org/2000/svg">
<path d="M14 0C10.287 0 6.72601 1.475 4.10051 4.10051C1.475 6.72601 0 10.287 0 14C0 17.713 1.475 21.274 4.10051 23.8995C6.72601 26.525 10.287 28 14 28C17.713 28 21.274 26.525 23.8995 23.8995C26.525 21.274 28 17.713 28 14C28 10.287 26.525 6.72601 23.8995 4.10051C21.274 1.475 17.713 0 14 0ZM25.6667 10.08C25.4559 10.7698 25.1055 11.4089 24.6372 11.9575C24.1689 12.5061 23.5927 12.9525 22.9444 13.2689C22.5991 11.9723 21.961 10.7723 21.0791 9.76099C20.1973 8.74972 19.0953 7.95417 17.8578 7.43556C18.0592 6.74535 18.4934 6.14621 19.0867 5.74C18.4178 5.30444 17.5311 5.08667 17.0022 5.84889C16.1778 6.92222 17.0022 8.35333 17.3289 8.96V9.17778C16.4652 8.65391 15.7899 7.86966 15.4 6.93778C13.8969 6.8895 12.4102 7.26119 11.1067 8.01111C10.9714 7.13285 11.0569 6.23471 11.3556 5.39778C11.9173 5.4514 12.4836 5.36592 13.0044 5.14889C13.5253 4.93186 13.9848 4.58995 14.3422 4.15333C15.0578 3.34444 14.14 2.31778 13.4244 1.69556H13.9844C16.1022 1.68127 18.1873 2.21729 20.0356 3.25111C21.0802 4.02321 21.9394 5.0188 22.5503 6.16524C23.1612 7.31168 23.5084 8.58004 23.5667 9.87778C23.94 9.87778 24.6556 9.02222 24.9822 8.44667C25.2498 8.974 25.4784 9.52 25.6667 10.08ZM14 26.1956C10.8111 22.96 14.3889 20.3622 12.4444 18.0444C11.0133 16.7222 8.88222 17.64 7.60667 16.1311C7.39134 15.0062 7.48443 13.844 7.87605 12.7678C8.26767 11.6915 8.94323 10.7412 9.83111 10.0178C10.64 9.33333 16.0533 8.46222 18.2622 10.36C19.5542 11.4728 20.4631 12.964 20.86 14.6222C21.5739 14.6762 22.2878 14.5193 22.9133 14.1711C23.5511 18.8067 18.0133 24.6556 14 26.1956ZM8.01111 3.25111C8.60561 3.02445 9.25869 3.00233 9.86717 3.18826C10.4756 3.37418 11.0048 3.75754 11.3711 4.27778C10.7178 4.86889 9.90889 5.25778 9.03778 5.39778C9.06995 4.93974 9.16954 4.48896 9.33333 4.06L8.01111 3.25111Z" fill="black" fill-opacity="0.5"/>
</svg>
