<svg width="32" height="28" viewBox="0 0 32 28" fill="none" xmlns="http://www.w3.org/2000/svg">
<path d="M31.9856 1.25355C32.016 1.06856 31.9981 0.87876 31.9336 0.702914C31.8691 0.527067 31.7602 0.371274 31.6178 0.250949C31.4753 0.130623 31.3042 0.049937 31.1214 0.0168732C30.9386 -0.0161905 30.7504 -0.000485605 30.5754 0.0624338L0.708405 10.832C0.511534 10.9029 0.339626 11.0306 0.214035 11.1993C0.0884448 11.3679 0.0147063 11.5702 0.00197962 11.7808C-0.010747 11.9914 0.0380991 12.2012 0.14245 12.384C0.246802 12.5669 0.402059 12.7148 0.588937 12.8093L9.12237 17.1171C9.29054 17.2021 9.47797 17.2407 9.66567 17.2289C9.85337 17.2172 10.0347 17.1556 10.1912 17.0503L17.2739 12.2816L13.0349 17.6362C12.9427 17.7527 12.8754 17.8874 12.8374 18.0315C12.7994 18.1757 12.7915 18.3263 12.8142 18.4737C12.8368 18.6211 12.8896 18.7622 12.9691 18.8879C13.0486 19.0137 13.1531 19.1214 13.276 19.2042L26.0762 27.8199C26.2244 27.9194 26.3949 27.9798 26.5722 27.9958C26.7495 28.0117 26.9279 27.9826 27.0912 27.9111C27.2545 27.8395 27.3975 27.7279 27.5071 27.5863C27.6167 27.4447 27.6895 27.2777 27.7188 27.1005L31.9856 1.25355Z" fill="black" fill-opacity="0.5"/>
</svg>
